# xmcd
#
# Track frame offsets:
#       150
#       17179
#       33727
#       49627
#       67795
#       92215
#       122443
#
# Disc length: 2138 seconds
#
# Revision: 3
# Processed by: cddbd v1.5.2PL0 Copyright (c) Steve Scherf et al.
# Submitted via: WaveLab 4.01
#
DISCID=53085807
DTITLE=Vengaboys - 
DYEAR=1998
DGENRE=Dance
TTITLE0=Vengaboys - Up And Down (Airplay)
TTITLE1=Vengaboys - Up And Down (Hard Radio)
TTITLE2=Vengaboys - Up And Down (BCM Radio)
TTITLE3=Vengaboys - Up And Down (More Airplay)
TTITLE4=Vengaboys - Up And Down (Hard And Long)
TTITLE5=Vengaboys - Up And Down (BCM Club Mix)
TTITLE6=Vengaboys - Up And Down (Airplay XXL)
EXTD=
EXTT0=
EXTT1=
EXTT2=
EXTT3=
EXTT4=
EXTT5=
EXTT6=
PLAYORDER=
